<svg id="Layer_2" data-name="Layer 2" xmlns="http://www.w3.org/2000/svg" viewBox="0 0 942 398.85"><defs><style>.cls-1{fill:#7f8084;}.cls-2{fill:#fff;}.cls-3{fill:none;}</style></defs><title>Dmcclogo</title><path class="cls-1" d="M1449,913v268.5h122.5s37-5.5,56-18,34-30.5,34-30.5v106.5h73V1102l57.5,137.5h32.5L1882,1100v139.5h71V1145h54.5s28,20,61.5,18.5,59-18,59-18l22.5.5s2,57,26,86.5,49,38,49,38,21,10,62,8S2348,1260,2348,1260s20-15,28-28,15-25,15-25l-37-16s-26.5,50-69.5,49.5-90-23.5-93-102.5c0,0,0-89,84.5-96.5,61.67,1.5,72.89,45.13,72.89,45.13L2387.5,1070s-9.83-24-35.5-45c-14.63-12-46-23-74.5-22,0,0-47.5-3.5-83.5,25s-40.5,75.5-40.5,75.5a88.84,88.84,0,0,1-28.5,30c-19,12-39.5,18-57,17.5s-33.5-4-50.5-14-51-41.5-48.5-90,38-72.5,43-76,31.5-21,63.5-18,41,11,47,15.5,19.5,14,21.5,18.5c8.5-3.5,56-19,56-19l-1.5-14s-15.5-11.25-15.25-14.75,3.5-4.25,1.75-8.5-20.75-12.75-22.75-14-19-9-22.25-8.5-5.75,7-5.75,7a10.9,10.9,0,0,1-5.5-6c-1.75-4.5-18.5-22-24.5-25S2077.5,879.5,2071,880c0,0-30.75-.5-39.5,3.5s-7.5,10.25-14.75,18.25-8.5,13.75-28,18.75c0,0-55,13.25-66,14s-37.5,9.75-44.25,13S1862,959,1860.25,971l-2.25,49.75-49.5,120.75-66-170.5-73,.5s-12-19.5-25.5-30.5-41.5-20.5-48.5-22.5-33-5.5-33-5.5Z" transform="translate(-1449 -879.92)"/><polygon class="cls-2" points="31.67 112.08 153 63.09 167 87.58 80.33 122.75 185 122.75 185 146.42 182 146.42 182 249.75 177.33 256.42 50.33 256.42 44 250.75 43.67 146.09 39.33 146.42 39.67 129.09 31.67 112.08"/><polygon class="cls-1" points="88.67 82.08 123.02 103.91 133.16 98.91 92 73.75 88.67 82.08"/><polygon class="cls-1" points="145.88 94.08 157.63 89.83 119.75 65.83 110.91 70.46 145.88 94.08"/><path class="cls-3" d="M1913.83,969.17c14.67-5.67,11.67-10.67,10.67-13.17s-8.83-6-19.17-2.17-13.16,7.34-12.33,11.34,8,5.66,11.5,5.5A71,71,0,0,0,1913.83,969.17Z" transform="translate(-1449 -879.92)"/><path class="cls-1" d="M2127.07,996.48l-11.89,7.78s-16-20.75-50.36-19.67-66.35,32.64-64.41,72c0,0,4.76,63.54,68.09,63.11,42.14,0,57.06-30.69,57.06-30.69l12.75,4.54s-20.83,38.47-69,40-81-43.66-81.66-75.65c0,0-7.13-75.43,76.73-86.67,0,0,26.15-1.08,43.44,9.94S2127.07,996.48,2127.07,996.48Z" transform="translate(-1449 -879.92)"/><path class="cls-1" d="M2151,992.83s28.33-13,74.17-20.66,72.66-6.5,72.66-6.5-53,9.6-71.5,13.55S2151,992.83,2151,992.83Z" transform="translate(-1449 -879.92)"/><path class="cls-2" d="M2264.33,1010.83s10.17-1,16.17-.83,17.33,1.67,17.33,1.67l-2.66,22.5s-9-1.34-14.09-1.67a116.79,116.79,0,0,0-13.91.5Z" transform="translate(-1449 -879.92)"/><path class="cls-2" d="M2313.17,1015.33s10.83,3.82,16,6.74,11.33,7.1,11.33,7.1-7.67,9.16-8.33,11-4.17,9.5-4.17,9.5a51.92,51.92,0,0,0-9.67-6.34c-5.16-2.5-10.83-4.83-10.83-4.83s2.5-7.5,3.5-11.17S2313.17,1015.33,2313.17,1015.33Z" transform="translate(-1449 -879.92)"/><path class="cls-2" d="M2352.67,1038.17s-6.67,9.33-8,11.5-4.17,10.33-4.17,10.33a75.09,75.09,0,0,1,7,8c2,3,4.33,6,4.33,6s8.17-4.5,10.5-5.33,12-5,12-5-7.5-11-10.33-14S2352.67,1038.17,2352.67,1038.17Z" transform="translate(-1449 -879.92)"/><path class="cls-3" d="M2258.5,1249.17s-1.67,7.33-2.5,9.83-3.67,9-3.67,9a92.24,92.24,0,0,0,13.84,2.33c5.83.34,13.5,0,13.5,0l-1.34-19s-7.16,0-10.5-.33A88.53,88.53,0,0,1,2258.5,1249.17Z" transform="translate(-1449 -879.92)"/><path class="cls-2" d="M2292.67,1249.17s10.16-.5,13.83-1.17a35.43,35.43,0,0,0,8.33-3.17l11.17,18.5a49,49,0,0,1-14,5.84c-7.17,1.5-17.67,1.31-17.67,1.31Z" transform="translate(-1449 -879.92)"/><path class="cls-2" d="M2328.17,1237.33s6.83-5.66,8.5-7.16,4.33-5.34,5.33-5,7.83,3.66,11.33,7.33,6.34,6.67,6.34,6.67a81.58,81.58,0,0,1-10.84,10.5,109.63,109.63,0,0,1-9.5,6.33s-2.5-4.83-5.16-9.67A72.94,72.94,0,0,0,2328.17,1237.33Z" transform="translate(-1449 -879.92)"/><path class="cls-2" d="M2349.83,1216.17A87.69,87.69,0,0,1,2355,1209c1.67-1.83,3.67-6.5,3.67-6.5s9.83,3.17,12.66,4.33a94.3,94.3,0,0,1,9,5l-12.66,18.5a83.45,83.45,0,0,0-8-8A76.16,76.16,0,0,0,2349.83,1216.17Z" transform="translate(-1449 -879.92)"/></svg>